<?xml version="1.0" encoding="utf-8"?>
<!-- Generator: Adobe Illustrator 23.0.1, SVG Export Plug-In . SVG Version: 6.00 Build 0)  -->
<svg version="1.1" id="Layer_1" xmlns="http://www.w3.org/2000/svg" xmlns:xlink="http://www.w3.org/1999/xlink" x="0px" y="0px"
	 viewBox="0 0 106 39" style="enable-background:new 0 0 106 39;" xml:space="preserve">
<style type="text/css">
	.st0{fill:#5856D6;}
	.st1{fill:#5AC8FA;}
	.st2{fill:#4240A0;}
	.st3{fill:#222222;}
</style>
<polygon class="st0" points="9,17 9,39 27,17 "/>
<polyline class="st1" points="18,0 0,22 18,22 "/>
<rect x="9" y="17" class="st2" width="9" height="5"/>
<g>
	<path class="st3" d="M43.93,27.76l-1.59-4.71H35.7l-1.59,4.71h-2.81l6.29-17.42h2.92l6.29,17.42H43.93z M38.98,13.24l-2.6,7.64
		h5.26l-2.6-7.64H38.98z"/>
	<path class="st3" d="M52.4,27.98c-1.61,0-2.9-0.6-3.88-1.79c-0.97-1.19-1.46-2.78-1.46-4.78c0-2,0.48-3.59,1.45-4.78
		c0.97-1.19,2.26-1.78,3.86-1.78c0.89,0,1.69,0.21,2.39,0.62c0.7,0.41,1.23,0.98,1.59,1.7h0.05v-6.83h2.62v17.42h-2.54V25.6h-0.05
		c-0.38,0.74-0.92,1.32-1.62,1.74C54.12,27.77,53.31,27.98,52.4,27.98z M53.09,17.05c-1.03,0-1.85,0.39-2.45,1.18
		c-0.6,0.78-0.91,1.85-0.91,3.18c0,1.34,0.3,2.41,0.91,3.19c0.6,0.78,1.42,1.17,2.45,1.17c1.01,0,1.81-0.4,2.43-1.19
		c0.61-0.79,0.92-1.85,0.92-3.17c0-1.31-0.31-2.37-0.92-3.16C54.9,17.45,54.09,17.05,53.09,17.05z"/>
	<path class="st3" d="M61.25,27.76v-12.7h2.49v2.14h0.06c0.29-0.72,0.75-1.29,1.39-1.71c0.64-0.43,1.38-0.64,2.22-0.64
		c0.88,0,1.62,0.22,2.24,0.65c0.62,0.43,1.05,1.05,1.31,1.84h0.06c0.33-0.77,0.85-1.38,1.55-1.82c0.7-0.44,1.51-0.66,2.41-0.66
		c1.26,0,2.26,0.38,3.02,1.15s1.14,1.78,1.14,3.04v8.73h-2.62v-8.1c0-0.82-0.21-1.46-0.63-1.91c-0.42-0.45-1.02-0.68-1.79-0.68
		c-0.77,0-1.4,0.26-1.89,0.77s-0.73,1.18-0.73,1.98v7.93h-2.56v-8.29c0-0.73-0.22-1.31-0.65-1.75c-0.43-0.43-1.02-0.65-1.75-0.65
		c-0.77,0-1.41,0.27-1.9,0.8s-0.74,1.21-0.74,2.03v7.85H61.25z"/>
	<path class="st3" d="M83.66,12.77c-0.3,0.29-0.66,0.44-1.07,0.44c-0.42,0-0.77-0.15-1.07-0.44c-0.29-0.29-0.44-0.64-0.44-1.05
		c0-0.42,0.15-0.77,0.44-1.06c0.29-0.29,0.65-0.43,1.07-0.43c0.43,0,0.79,0.14,1.08,0.43c0.29,0.29,0.44,0.64,0.44,1.06
		C84.11,12.13,83.96,12.48,83.66,12.77z M81.28,27.76v-12.7h2.61v12.7H81.28z"/>
	<path class="st3" d="M86.12,27.76v-12.7h2.49v2.13h0.06c0.35-0.74,0.87-1.32,1.55-1.73s1.49-0.62,2.45-0.62
		c1.39,0,2.48,0.42,3.25,1.25c0.77,0.83,1.16,1.98,1.16,3.45v8.22h-2.62v-7.72c0-0.97-0.23-1.7-0.68-2.2
		c-0.45-0.5-1.13-0.75-2.02-0.75c-0.92,0-1.65,0.3-2.2,0.89s-0.82,1.39-0.82,2.38v7.4H86.12z"/>
	<path class="st3" d="M99.89,12.05h2.62v3.01h2.42v2.06h-2.42v7c0,0.55,0.12,0.95,0.37,1.21c0.25,0.26,0.64,0.39,1.17,0.39
		c0.39,0,0.67-0.02,0.86-0.06v2.06c-0.32,0.08-0.81,0.12-1.45,0.12c-1.28,0-2.2-0.26-2.75-0.79c-0.55-0.53-0.83-1.41-0.83-2.64
		v-7.29h-1.85v-2.06h1.85V12.05z"/>
</g>
</svg>
